{"title":"Diljit Dosanjh Mind Na Kari","uid":7344084,"size":36960166,"categoryP":"video","categoryS":"music_videos","magnet":"?xt=urn:btih:e16e971c8c5c2c645bc60d978d866214edbe6300&amp;dn=Diljit+Dosanjh+Mind+Na+Kari&amp;tr=udp%3A%2F%2Ftracker.openbittorrent.com%3A80&amp;tr=udp%3A%2F%2Fopen.demonii.com%3A1337&amp;tr=udp%3A%2F%2Ftracker.coppersurfer.tk%3A6969&amp;tr=udp%3A%2F%2Fexodus.desync.com%3A6969","seeders":0,"leechers":1,"uploader":"djsunny1986","files":3,"time":1339357376,"description":"Diljit Dosanjh Mind Na Kari\n\n\n Format                                   : MPEG-4\nFormat profile                           : Base Media / Version 2\nCodec ID                                 : mp42\nFile size                                : 34.6 MiB\nDuration                                 : 1mn 58s\nOverall bit rate mode                    : Variable\nOverall bit rate                         : 2 454 Kbps\n\nVideo\nID                                       : 1\nFormat                                   : AVC\nFormat/Info                              : Advanced Video Codec\nFormat profile                           : &lt;a class=&quot;__cf_email__&quot; href=&quot;/cdn-cgi/l/email-protection&quot; data-cfemail=&quot;571f3e303f171b647966&quot;&gt;[email&amp;#160;protected]&lt;/a&gt;&lt;script cf-hash='f9e31' type=&quot;text/javascript&quot;&gt;\n/* &lt;![CDATA[ */!function(){try{var t=&quot;currentScript&quot;in document?document.currentScript:function(){for(var t=document.getElementsByTagName(&quot;script&quot;),e=t.length;e--;)if(t[e].getAttribute(&quot;cf-hash&quot;))return t[e]}();if(t&amp;&amp;t.previousSibling){var e,r,n,i,c=t.previousSibling,a=c.getAttribute(&quot;data-cfemail&quot;);if(a){for(e=&quot;&quot;,r=parseInt(a.substr(0,2),16),n=2;a.length-n;n+=2)i=parseInt(a.substr(n,2),16)^r,e+=String.fromCharCode(i);e=document.createTextNode(e),c.parentNode.replaceChild(e,c)}}}catch(u){}}();/* ]]&gt; */&lt;/script&gt;\nFormat settings, CABAC                   : Yes\nFormat settings, ReFrames                : 1 frame\nCodec ID                                 : avc1\nCodec ID/Info                            : Advanced Video Coding\nDuration                                 : 1mn 58s\nBit rate                                 : 2 300 Kbps\nMaximum bit rate                         : 4 413 Kbps\nWidth                                    : 1 280 pixels\nHeight                                   : 720 pixels\nDisplay aspect ratio                     : 16:9\nFrame rate mode                          : Constant\nFrame rate                               : 24.000 fps\nColor space                              : YUV\nChroma subsampling                       : 4:2:0\nBit depth                                : 8 bits\nScan type                                : Progressive\nBits/(Pixel*Frame)                       : 0.104\nStream size                              : 32.4 MiB (94%)\nTagged date                              : UTC 2012-06-08 22:26:50\n\nAudio\nID                                       : 2\nFormat                                   : AAC\nFormat/Info                              : Advanced Audio Codec\nFormat profile                           : LC\nCodec ID                                 : 40\nDuration                                 : 1mn 58s\nBit rate mode                            : Variable\nBit rate                                 : 152 Kbps\nMaximum bit rate                         : 177 Kbps\nChannel(s)                               : 2 channels\nChannel positions                        : Front: L R\nSampling rate                            : 44.1 KHz\nCompression mode                         : Lossy\nStream size                              : 2.14 MiB (6%)\n\n\n\n____/ /  (_)_____ __  __ ____   ____   __  __&lt;  // __  ( __ ) / ___/\n / __  /  / // ___// / / // __  / __  / / / // // /_/ // __  |/ __  \n/ /_/ /  / /(__  )/ /_/ // / / // / / // /_/ // / __, // /_/ // /_/ / \n__,_/__/ //____/ __,_//_/ /_//_/ /_/ __, //_/ /____/ ____/ ____/  \n     /___/                            /____/                           \n\n\n\n\nplz seed","torrent":{"xt":"urn:btih:e16e971c8c5c2c645bc60d978d866214edbe6300","amp;dn":"Diljit+Dosanjh+Mind+Na+Kari","amp;tr":["udp%3A%2F%2Ftracker.openbittorrent.com%3A80","udp%3A%2F%2Fopen.demonii.com%3A1337","udp%3A%2F%2Ftracker.coppersurfer.tk%3A6969","udp%3A%2F%2Fexodus.desync.com%3A6969"],"infoHash":"e16e971c8c5c2c645bc60d978d866214edbe6300","infoHashBuffer":{"type":"Buffer","data":[225,110,151,28,140,92,44,100,91,198,13,151,141,134,98,20,237,190,99,0]},"announce":[],"urlList":[]}}